<?xml version="1.0" encoding="utf-8"?>
<!-- Generator: Adobe Illustrator 24.1.0, SVG Export Plug-In . SVG Version: 6.00 Build 0)  -->
<svg version="1.1" id="Layer_1" xmlns="http://www.w3.org/2000/svg" xmlns:xlink="http://www.w3.org/1999/xlink" x="0px" y="0px"
	 viewBox="0 0 2048 574" style="enable-background:new 0 0 2048 574;" xml:space="preserve">
<style type="text/css">
	.st0{fill:none;}
	.st1{fill:#FFCD00;}
	.st2{fill:#FFFFFF;}
</style>
<g>
	<rect id="XMLID_1_" class="st0" width="2048" height="574"/>
	<g>
		<path class="st1" d="M1464.43,573.9c95.8,0,184.21-31.09,255.46-83.56c12.18-8.97,14.67-26.16,5.39-38.11v0
			c-9.09-11.7-26.01-13.87-37.6-4.64c-69.26,55.11-156.13,87.96-250.5,87.96c-113.54,0-216.22-47.52-290.4-124.2
			c-2.96-3.06-7.83-3.14-10.83-0.12v0c-2.75,2.78-2.98,7.23-0.46,10.22C1213.84,514.57,1332.09,573.9,1464.43,573.9z"/>
		<g>
			<path class="st2" d="M1277.69,133c-83.9,0-143.95,58.94-143.95,140.74c0,81.68,60.05,140.74,143.95,140.74
				c82.79,0,143.46-59.06,143.46-140.74C1421.15,191.94,1360.48,133,1277.69,133z M1277.38,341.49
				c-34.98-0.04-63.31-30.4-63.28-67.82c0.04-37.42,28.42-67.72,63.41-67.69c34.98,0.04,63.31,30.4,63.28,67.82
				S1312.36,341.53,1277.38,341.49z"/>
			<path class="st2" d="M1587.44,133c-83.9,0-143.95,58.94-143.95,140.74c0,81.68,60.05,140.74,143.95,140.74
				c82.79,0,143.46-59.06,143.46-140.74C1730.9,191.94,1670.23,133,1587.44,133z M1587.13,341.49
				c-34.98-0.04-63.31-30.4-63.28-67.82c0.04-37.42,28.42-67.72,63.41-67.69c34.98,0.04,63.31,30.4,63.28,67.82
				S1622.11,341.53,1587.13,341.49z"/>
			<g>
				<path class="st2" d="M841.77,373.36c0,19.78,16.03,35.81,35.81,35.81l44.55,0l0-272.69l-80.36,0L841.77,373.36z"/>
				<circle class="st2" cx="881.95" cy="48.14" r="47.13"/>
			</g>
			<path class="st2" d="M618.23,136.02V409H595.5c-16.04-0.28-29.76-9.86-36.11-23.58c-16.16,13.32-40.25,22.51-66.5,23.58
				c-1.87,0-9.92,0-12.08-0.06c-33.05-1.13-62.93-11.28-86.85-29.82c-27.16-22.17-37.36-47.62-37.36-96.89V136.08l80.45-0.06
				c0,0-0.11,145.76,0,148.93c0,0.06,0,0.17,0.06,0.23v0.45c-0.06,27.84,22.51,50.4,50.29,50.46c27.84,0,50.4-22.51,50.4-50.34
				v-0.79c0.17-3.17,0-148.93,0-148.93H618.23z"/>
			<path class="st2" d="M231.58,253.23h-1.06L106.33,40.74C91.09,13.86,71.06,0.1,37.36,0.1L1.5,0.1l0,409.17l80.36,0l0-246.76h1.06
				c0,0,91.23,155.4,121.78,206.58c17.85,29.89,38.2,40.35,68.8,40.35l38.42,0V0.1h-80.33L231.58,253.23z"/>
			<path class="st2" d="M2045.82,47.53c-0.01-26.16-21.21-47.36-47.37-47.36h-33.88l0.64,174.84
				c-14.23-23.71-43.93-42.01-85.45-42.01c-73.96,0-126.23,56.34-126.23,138.61c0,84.51,51.15,142.87,126.23,142.87
				c42.34,0,74.84-22.35,85.54-42.9c0,13.63,13.76,37.58,40.39,37.58h40.81V223.34L2045.82,47.53z M1897.16,341.49
				c-34.98-0.04-63.31-30.4-63.28-67.82c0.04-37.42,28.42-67.72,63.4-67.69c34.98,0.04,63.31,30.4,63.28,67.82
				C1960.53,311.22,1932.15,341.53,1897.16,341.49z"/>
			<path class="st2" d="M749.29,209.9c38.72,0,70.07-31.35,70.07-70.07v-3.49h-76.14V33.5l-64.18,25.46
				c-9.81,3.97-16.27,13.49-16.27,24.09v221.39c0,41.33,2.95,53.52,18.03,72.11c17.46,21.54,40.76,33.62,72.79,33.62
				c20.92,0,39.01-2.89,65.76-10.49l-0.01-3.6c-0.05-22.91-18.89-41.68-41.78-40.89c-0.74,0.03-1.42,0.04-2.03,0.04
				c-19.11,0-32.32-10.94-32.32-28.52V209.9H749.29z"/>
			<path class="st2" d="M1047.37,69.3c1.64-16.95,21.32-26.19,35.09-16.16c0.11,0.06,0.23,0.17,0.34,0.23
				c11.34,9.07,20.98,12.42,31.69,12.42c18.71,0,31.12-11.85,44.11-32.77c-28.8-25.51-57.15-32.83-87.14-32.83
				c-56.01,0-104.66,26.59-104.66,108.06v301.1h80.33V209.3h17.47c38.72,0,70.07-31.35,70.07-70.07v-2.89h-87.54V74.29
				C1047.14,72.54,1047.26,70.89,1047.37,69.3z"/>
		</g>
	</g>
</g>
</svg>
